<?xml version="1.0" encoding="UTF-8"?>
<svg width="278px" height="83px" viewBox="0 0 278 83" version="1.1" xmlns="http://www.w3.org/2000/svg" xmlns:xlink="http://www.w3.org/1999/xlink">
    <title>logo-senmo</title>
    <defs>
        <path d="M0,22.0956993 L0,36.4393081 L38,14.3436088 L76,36.4393081 L76,22.0956993 L38,0 L0,22.0956993 Z M0,43.2955798 L0,59.9050011 L18.6846141,70.7689942 L57.3153859,48.3062823 L62.9805091,51.6002904 L24.3490419,74.0630023 L38,82 L76,59.9050011 L76,43.2955798 L57.3153859,32.4315866 L18.6846141,54.8935981 L13.0201863,51.6002904 L51.6509581,29.1375785 L38,21.2005808 L0,43.2955798 Z" id="path-1"></path>
        <linearGradient x1="50.000214%" y1="100.000522%" x2="50.000214%" y2="-34.8695787%" id="linearGradient-3">
            <stop stop-color="#00B8CA" offset="0%"></stop>
            <stop stop-color="#000062" offset="100%"></stop>
        </linearGradient>
    </defs>
    <g id="Page-1" stroke="none" stroke-width="1" fill="none" fill-rule="evenodd">
        <g id="logo-senmo" transform="translate(0.586000, 0.040000)">
            <g id="Fill-74-Clipped">
                <mask id="mask-2" fill="white">
                    <use xlink:href="#path-1"></use>
                </mask>
                <g id="path-1"></g>
                <path d="M0,22.0956993 L0,36.4393081 L38,14.3436088 L76,36.4393081 L76,22.0956993 L38,0 L0,22.0956993 Z M0,43.2955798 L0,59.9050011 L18.6846141,70.7689942 L57.3153859,48.3062823 L62.9805091,51.6002904 L24.3490419,74.0630023 L38,82 L76,59.9050011 L76,43.2955798 L57.3153859,32.4315866 L18.6846141,54.8935981 L13.0201863,51.6002904 L51.6509581,29.1375785 L38,21.2005808 L0,43.2955798 Z" id="Fill-74" fill="url(#linearGradient-3)" fill-rule="nonzero" mask="url(#mask-2)"></path>
            </g>
            <g id="Group-87" transform="translate(97.461900, 23.551600)" fill="#000000" fill-rule="nonzero">
                <path d="M30.145,24.5653 C30.145,26.3263 29.763,27.8713 28.999,29.1993 C28.234,30.5283 27.18,31.6573 25.835,32.5873 C24.49,33.5173 22.895,34.2153 21.052,34.6803 C19.208,35.1453 17.223,35.3773 15.097,35.3773 C12.639,35.3773 10.505,35.1533 8.695,34.7053 C6.884,34.2563 5.356,33.7423 4.11,33.1603 C2.865,32.5793 1.901,32.0313 1.221,31.5163 C0.539,31.0013 0.132,30.6613 0,30.4943 L4.484,24.7643 C4.684,24.9313 5.057,25.2133 5.605,25.6113 C6.153,26.0103 6.876,26.4263 7.773,26.8573 C8.67,27.2893 9.724,27.6633 10.937,27.9783 C12.149,28.2943 13.536,28.4513 15.097,28.4513 C17.09,28.4513 18.685,28.1773 19.881,27.6293 C21.077,27.0813 21.675,26.2093 21.675,25.0133 C21.675,23.9843 21.159,23.2283 20.13,22.7463 C19.1,22.2653 17.821,21.8743 16.293,21.5753 C14.765,21.2763 13.096,20.9533 11.286,20.6043 C9.475,20.2553 7.806,19.7153 6.278,18.9843 C4.75,18.2543 3.471,17.2153 2.441,15.8703 C1.411,14.5253 0.897,12.6903 0.897,10.3643 C0.897,8.8373 1.229,7.4333 1.893,6.1543 C2.557,4.8763 3.504,3.7793 4.734,2.8653 C5.962,1.9523 7.44,1.2463 9.168,0.7483 C10.895,0.2493 12.805,0.0003 14.898,0.0003 C17.422,0.0003 19.598,0.2333 21.426,0.6983 C23.252,1.1633 24.755,1.6863 25.935,2.2673 C27.113,2.8493 28.01,3.4133 28.625,3.9613 C29.24,4.5093 29.63,4.8513 29.796,4.9833 L25.112,10.3643 C25.046,10.2983 24.772,10.0743 24.291,9.6923 C23.809,9.3103 23.136,8.9033 22.273,8.4713 C21.408,8.0393 20.354,7.6493 19.109,7.3003 C17.863,6.9513 16.443,6.7773 14.848,6.7773 C13.054,6.7773 11.676,7.0683 10.713,7.6493 C9.749,8.2303 9.267,9.0023 9.267,9.9663 C9.267,10.7303 9.567,11.3113 10.165,11.7103 C10.763,12.1083 11.551,12.4323 12.531,12.6813 C13.511,12.9303 14.624,13.1473 15.87,13.3293 C17.115,13.5123 18.394,13.7363 19.707,14.0023 C21.018,14.2683 22.297,14.6253 23.543,15.0733 C24.789,15.5213 25.901,16.1443 26.881,16.9413 C27.861,17.7393 28.651,18.7523 29.248,19.9813 C29.846,21.2103 30.145,22.7383 30.145,24.5653" id="Fill-77"></path>
                <polygon id="Fill-79" points="35.8251 34.5804 35.8251 0.7974 61.3361 0.7974 61.3361 7.8234 44.2951 7.8234 44.2951 14.1514 60.0911 14.1514 60.0911 21.0274 44.2951 21.0274 44.2951 27.5044 62.0341 27.5044 62.0341 34.5804"></polygon>
                <polygon id="Fill-81" points="88.99 34.5804 75.039 13.9024 75.039 34.5804 67.116 34.5804 67.116 0.7974 75.537 0.7974 89.489 21.4754 89.489 0.7974 97.411 0.7974 97.411 34.5804"></polygon>
                <polygon id="Fill-83" points="135.229 34.5804 135.229 6.4284 123.719 34.5804 119.982 34.5804 108.472 6.4284 108.472 34.5804 104.586 34.5804 104.586 0.7974 110.166 0.7974 121.926 29.5474 133.585 0.7974 139.116 0.7974 139.116 34.5804"></polygon>
                <path d="M174.7916,17.689 C174.7916,15.895 174.5336,14.16 174.0186,12.482 C173.5036,10.805 172.7316,9.31 171.7016,7.998 C170.6726,6.686 169.3766,5.64 167.8156,4.859 C166.2536,4.079 164.4106,3.688 162.2846,3.688 C160.1586,3.688 158.3146,4.079 156.7546,4.859 C155.1926,5.64 153.8976,6.686 152.8676,7.998 C151.8376,9.31 151.0656,10.805 150.5506,12.482 C150.0356,14.16 149.7786,15.895 149.7786,17.689 C149.7786,19.483 150.0356,21.219 150.5506,22.896 C151.0656,24.574 151.8376,26.068 152.8676,27.381 C153.8976,28.693 155.1926,29.739 156.7546,30.519 C158.3146,31.3 160.1586,31.691 162.2846,31.691 C164.4106,31.691 166.2536,31.3 167.8156,30.519 C169.3766,29.739 170.6726,28.693 171.7016,27.381 C172.7316,26.068 173.5036,24.574 174.0186,22.896 C174.5336,21.219 174.7916,19.483 174.7916,17.689 M179.1766,17.689 C179.1766,19.849 178.8276,21.991 178.1296,24.117 C177.4326,26.243 176.3856,28.136 174.9906,29.797 C173.5956,31.458 171.8426,32.804 169.7346,33.833 C167.6246,34.862 165.1416,35.378 162.2846,35.378 C159.4276,35.378 156.9456,34.862 154.8356,33.833 C152.7256,32.804 150.9746,31.458 149.5796,29.797 C148.1836,28.136 147.1376,26.243 146.4396,24.117 C145.7426,21.991 145.3936,19.849 145.3936,17.689 C145.3936,15.53 145.7426,13.396 146.4396,11.286 C147.1376,9.177 148.1836,7.284 149.5796,5.606 C150.9746,3.929 152.7256,2.575 154.8356,1.545 C156.9456,0.516 159.4276,0 162.2846,0 C165.1416,0 167.6246,0.516 169.7346,1.545 C171.8426,2.575 173.5956,3.929 174.9906,5.606 C176.3856,7.284 177.4326,9.177 178.1296,11.286 C178.8276,13.396 179.1766,15.53 179.1766,17.689" id="Fill-85"></path>
            </g>
        </g>
    </g>
</svg>